{
  "accessors": [
    {
      "bufferView": 2,
      "componentType": 5126,
      "count": 65532,
      "max": [
        32.44675064086914,
        29.225065231323242,
        9.857165336608887
      ],
      "min": [
        -17.76508903503418,
        -29.58156967163086,
        -5.61778450012207
      ],
      "type": "VEC3"
    },
    {
      "bufferView": 2,
      "byteOffset": 786384,
      "componentType": 5126,
      "count": 65532,
      "max": [
        0.9999769926071167,
        0.9999915361404419,
        0.9996594190597534
      ],
      "min": [
        -0.9999867081642151,
        -0.9999698400497437,
        -0.9999983906745911
      ],
      "type": "VEC3"
    },
    {
      "bufferView": 1,
      "componentType": 5126,
      "count": 65532,
      "max": [
        0.9983766078948975,
        0.9997069239616394
      ],
      "min": [
        3.939680755138397e-05,
        0.00027873367071151733
      ],
      "type": "VEC2"
    },
    {
      "bufferView": 0,
      "componentType": 5125,
      "count": 267120,
      "type": "SCALAR"
    },
    {
      "bufferView": 2,
      "byteOffset": 1572768,
      "componentType": 5126,
      "count": 65533,
      "max": [
        31.92503547668457,
        27.954471588134766,
        9.917389869689941
      ],
      "min": [
        -27.752338409423828,
        -28.30870246887207,
        -5.062054634094238
      ],
      "type": "VEC3"
    },
    {
      "bufferView": 2,
      "byteOffset": 2359164,
      "componentType": 5126,
      "count": 65533,
      "max": [
        0.9999793171882629,
        0.9999879002571106,
        0.9996427297592163
      ],
      "min": [
        -0.9999947547912598,
        -0.9998470544815063,
        -0.999984085559845
      ],
      "type": "VEC3"
    },
    {
      "bufferView": 1,
      "byteOffset": 524256,
      "componentType": 5126,
      "count": 65533,
      "max": [
        0.9995872974395752,
        0.9998304843902588
      ],
      "min": [
        0.000247256422881037,
        0.000527203781530261
      ],
      "type": "VEC2"
    },
    {
      "bufferView": 0,
      "byteOffset": 1068480,
      "componentType": 5125,
      "count": 268587,
      "type": "SCALAR"
    },
    {
      "bufferView": 2,
      "byteOffset": 3145560,
      "componentType": 5126,
      "count": 65532,
      "max": [
        32.44675064086914,
        11.201716423034668,
        6.055216312408447
      ],
      "min": [
        6.463051795959473,
        -25.601516723632813,
        -5.776443958282471
      ],
      "type": "VEC3"
    },
    {
      "bufferView": 2,
      "byteOffset": 3931944,
      "componentType": 5126,
      "count": 65532,
      "max": [
        0.9999440312385559,
        0.999999463558197,
        0.999908983707428
      ],
      "min": [
        -0.999970018863678,
        -0.9999682307243347,
        -0.9999144673347473
      ],
      "type": "VEC3"
    },
    {
      "bufferView": 1,
      "byteOffset": 1048520,
      "componentType": 5126,
      "count": 65532,
      "max": [
        0.9996252655982971,
        0.9999853372573853
      ],
      "min": [
        0.00028974644374102354,
        0.00012440700083971024
      ],
      "type": "VEC2"
    },
    {
      "bufferView": 0,
      "byteOffset": 2142828,
      "componentType": 5125,
      "count": 271176,
      "type": "SCALAR"
    },
    {
      "bufferView": 2,
      "byteOffset": 4718328,
      "componentType": 5126,
      "count": 65532,
      "max": [
        29.26932144165039,
        30.612154006958008,
        5.504942893981934
      ],
      "min": [
        -6.887986660003662,
        -14.057825088500977,
        -5.245100498199463
      ],
      "type": "VEC3"
    },
    {
      "bufferView": 2,
      "byteOffset": 5504712,
      "componentType": 5126,
      "count": 65532,
      "max": [
        0.9998824000358582,
        0.9998793005943298,
        0.9998027682304382
      ],
      "min": [
        -0.9999278783798218,
        -0.9999788999557495,
        -0.9999952912330627
      ],
      "type": "VEC3"
    },
    {
      "bufferView": 1,
      "byteOffset": 1572776,
      "componentType": 5126,
      "count": 65532,
      "max": [
        0.9995995163917542,
        0.9998273849487305
      ],
      "min": [
        2.4687033146619797e-05,
        4.833855200558901e-05
      ],
      "type": "VEC2"
    },
    {
      "bufferView": 0,
      "byteOffset": 3227532,
      "componentType": 5125,
      "count": 225237,
      "type": "SCALAR"
    },
    {
      "bufferView": 2,
      "byteOffset": 6291096,
      "componentType": 5126,
      "count": 65532,
      "max": [
        5.130153179168701,
        13.983797073364258,
        8.718998908996582
      ],
      "min": [
        -24.635013580322266,
        -21.416610717773438,
        -3.6908655166625977
      ],
      "type": "VEC3"
    },
    {
      "bufferView": 2,
      "byteOffset": 7077480,
      "componentType": 5126,
      "count": 65532,
      "max": [
        0.9999762773513794,
        0.9999929070472717,
        0.9999910593032837
      ],
      "min": [
        -0.999966025352478,
        -0.9999589920043945,
        -0.9999995827674866
      ],
      "type": "VEC3"
    },
    {
      "bufferView": 1,
      "byteOffset": 2097032,
      "componentType": 5126,
      "count": 65532,
      "max": [
        0.999628484249115,
        0.9999870657920837
      ],
      "min": [
        1.5464653188246302e-05,
        2.596090780571103e-06
      ],
      "type": "VEC2"
    },
    {
      "bufferView": 0,
      "byteOffset": 4128480,
      "componentType": 5125,
      "count": 243144,
      "type": "SCALAR"
    },
    {
      "bufferView": 2,
      "byteOffset": 7863864,
      "componentType": 5126,
      "count": 65534,
      "max": [
        2.8556206226348877,
        28.1394100189209,
        4.339995384216309
      ],
      "min": [
        -28.21256446838379,
        -11.965840339660645,
        -2.687953233718872
      ],
      "type": "VEC3"
    },
    {
      "bufferView": 2,
      "byteOffset": 8650272,
      "componentType": 5126,
      "count": 65534,
      "max": [
        0.9999476671218872,
        0.9999223947525024,
        0.9997693300247192
      ],
      "min": [
        -0.9999781847000122,
        -0.9999873042106628,
        -0.9999908804893494
      ],
      "type": "VEC3"
    },
    {
      "bufferView": 1,
      "byteOffset": 2621288,
      "componentType": 5126,
      "count": 65534,
      "max": [
        0.9997287392616272,
        0.9998597502708435
      ],
      "min": [
        2.8531067073345184e-06,
        3.430992364883423e-06
      ],
      "type": "VEC2"
    },
    {
      "bufferView": 0,
      "byteOffset": 5101056,
      "componentType": 5125,
      "count": 218592,
      "type": "SCALAR"
    },
    {
      "bufferView": 2,
      "byteOffset": 9436680,
      "componentType": 5126,
      "count": 65532,
      "max": [
        -10.193880081176758,
        19.181955337524414,
        4.683778285980225
      ],
      "min": [
        -28.0223445892334,
        -11.88613224029541,
        -1.2090471982955933
      ],
      "type": "VEC3"
    },
    {
      "bufferView": 2,
      "byteOffset": 10223064,
      "componentType": 5126,
      "count": 65532,
      "max": [
        0.999975323677063,
        0.9999890923500061,
        0.9999512434005737
      ],
      "min": [
        -0.9999805092811584,
        -0.9999638199806213,
        -0.9999926090240479
      ],
      "type": "VEC3"
    },
    {
      "bufferView": 1,
      "byteOffset": 3145560,
      "componentType": 5126,
      "count": 65532,
      "max": [
        0.9998615384101868,
        0.9998676180839539
      ],
      "min": [
        8.40798020362854e-06,
        1.3239332474768162e-06
      ],
      "type": "VEC2"
    },
    {
      "bufferView": 0,
      "byteOffset": 5975424,
      "componentType": 5125,
      "count": 194613,
      "type": "SCALAR"
    },
    {
      "bufferView": 2,
      "byteOffset": 11009448,
      "componentType": 5126,
      "count": 65532,
      "max": [
        8.170015335083008,
        27.643287658691406,
        9.99303150177002
      ],
      "min": [
        -20.3723201751709,
        -29.513328552246094,
        -3.6848044395446777
      ],
      "type": "VEC3"
    },
    {
      "bufferView": 2,
      "byteOffset": 11795832,
      "componentType": 5126,
      "count": 65532,
      "max": [
        0.999955952167511,
        0.9999480843544006,
        0.9994808435440063
      ],
      "min": [
        -0.9999369382858276,
        -0.9999989867210388,
        -0.9999975562095642
      ],
      "type": "VEC3"
    },
    {
      "bufferView": 1,
      "byteOffset": 3669816,
      "componentType": 5126,
      "count": 65532,
      "max": [
        0.9998582601547241,
        0.9999889731407166
      ],
      "min": [
        0.0002600448206067085,
        1.9150669686496258e-05
      ],
      "type": "VEC2"
    },
    {
      "bufferView": 0,
      "byteOffset": 6753876,
      "componentType": 5125,
      "count": 244629,
      "type": "SCALAR"
    },
    {
      "bufferView": 2,
      "byteOffset": 12582216,
      "componentType": 5126,
      "count": 65532,
      "max": [
        15.692428588867188,
        30.775230407714844,
        9.809765815734863
      ],
      "min": [
        -16.266403198242188,
        -30.063440322875977,
        -4.808223247528076
      ],
      "type": "VEC3"
    },
    {
      "bufferView": 2,
      "byteOffset": 13368600,
      "componentType": 5126,
      "count": 65532,
      "max": [
        0.9999687075614929,
        0.9999630451202393,
        0.9989919066429138
      ],
      "min": [
        -0.9999707937240601,
        -0.9999164342880249,
        -0.9999776482582092
      ],
      "type": "VEC3"
    },
    {
      "bufferView": 1,
      "byteOffset": 4194072,
      "componentType": 5126,
      "count": 65532,
      "max": [
        0.999626636505127,
        0.9998731017112732
      ],
      "min": [
        5.1928916946053505e-05,
        6.0668098740279675e-05
      ],
      "type": "VEC2"
    },
    {
      "bufferView": 0,
      "byteOffset": 7732392,
      "componentType": 5125,
      "count": 256434,
      "type": "SCALAR"
    },
    {
      "bufferView": 2,
      "byteOffset": 14154984,
      "componentType": 5126,
      "count": 65532,
      "max": [
        27.91396141052246,
        29.845203399658203,
        4.634181499481201
      ],
      "min": [
        -8.588391304016113,
        -1.7027990818023682,
        -4.433984756469727
      ],
      "type": "VEC3"
    },
    {
      "bufferView": 2,
      "byteOffset": 14941368,
      "componentType": 5126,
      "count": 65532,
      "max": [
        0.9999359250068665,
        0.9999662041664124,
        0.9994444251060486
      ],
      "min": [
        -0.9999877214431763,
        -0.9999486804008484,
        -0.9999968409538269
      ],
      "type": "VEC3"
    },
    {
      "bufferView": 1,
      "byteOffset": 4718328,
      "componentType": 5126,
      "count": 65532,
      "max": [
        0.9998316764831543,
        0.9998667240142822
      ],
      "min": [
        4.330699084675871e-06,
        4.283568705432117e-05
      ],
      "type": "VEC2"
    },
    {
      "bufferView": 0,
      "byteOffset": 8758128,
      "componentType": 5125,
      "count": 198291,
      "type": "SCALAR"
    },
    {
      "bufferView": 2,
      "byteOffset": 15727752,
      "componentType": 5126,
      "count": 7305,
      "max": [
        29.976490020751953,
        21.647642135620117,
        5.366851806640625
      ],
      "min": [
        18.661096572875977,
        5.049985885620117,
        -4.4232497215271
      ],
      "type": "VEC3"
    },
    {
      "bufferView": 2,
      "byteOffset": 15815412,
      "componentType": 5126,
      "count": 7305,
      "max": [
        0.9992529153823853,
        0.9999675154685974,
        0.9907448291778564
      ],
      "min": [
        -0.9999434351921082,
        -0.9983934164047241,
        -0.9999141693115234
      ],
      "type": "VEC3"
    },
    {
      "bufferView": 1,
      "byteOffset": 5242584,
      "componentType": 5126,
      "count": 7305,
      "max": [
        0.9988786578178406,
        0.9992468357086182
      ],
      "min": [
        0.006405352149158716,
        0.0002837307401932776
      ],
      "type": "VEC2"
    },
    {
      "bufferView": 0,
      "byteOffset": 9551292,
      "componentType": 5125,
      "count": 18729,
      "type": "SCALAR"
    }
  ],
  "asset": {
    "extras": {
      "author": "yuma.jp (https://sketchfab.com/YYouzhen)",
      "license": "CC-BY-4.0 (http://creativecommons.org/licenses/by/4.0/)",
      "source": "https://sketchfab.com/3d-models/starfish-sarcophyton-agisoftnaturechallenge-4fa1e45a5e7446908bb85d363e3ac5ad",
      "title": "Starfish & Sarcophyton - #AgisoftNatureChallenge"
    },
    "generator": "Sketchfab-11.31.0",
    "version": "2.0"
  },
  "bufferViews": [
    {
      "buffer": 0,
      "byteLength": 9626208,
      "name": "floatBufferViews",
      "target": 34963
    },
    {
      "buffer": 0,
      "byteLength": 5301024,
      "byteOffset": 9626208,
      "byteStride": 8,
      "name": "floatBufferViews",
      "target": 34962
    },
    {
      "buffer": 0,
      "byteLength": 15903072,
      "byteOffset": 14927232,
      "byteStride": 12,
      "name": "floatBufferViews",
      "target": 34962
    }
  ],
  "buffers": [
    {
      "byteLength": 30830304,
      "uri": "scene.bin"
    }
  ],
  "extensionsUsed": [
    "KHR_materials_unlit"
  ],
  "images": [
    {
      "uri": "textures/material0_baseColor.jpeg"
    }
  ],
  "materials": [
    {
      "doubleSided": true,
      "extensions": {
        "KHR_materials_unlit": {}
      },
      "name": "material0",
      "pbrMetallicRoughness": {
        "baseColorTexture": {
          "index": 0
        },
        "metallicFactor": 0.0
      }
    }
  ],
  "meshes": [
    {
      "name": "Model_material0_0",
      "primitives": [
        {
          "attributes": {
            "NORMAL": 1,
            "POSITION": 0,
            "TEXCOORD_0": 2
          },
          "indices": 3,
          "material": 0,
          "mode": 4
        }
      ]
    },
    {
      "name": "Model_material0_0",
      "primitives": [
        {
          "attributes": {
            "NORMAL": 5,
            "POSITION": 4,
            "TEXCOORD_0": 6
          },
          "indices": 7,
          "material": 0,
          "mode": 4
        }
      ]
    },
    {
      "name": "Model_material0_0",
      "primitives": [
        {
          "attributes": {
            "NORMAL": 9,
            "POSITION": 8,
            "TEXCOORD_0": 10
          },
          "indices": 11,
          "material": 0,
          "mode": 4
        }
      ]
    },
    {
      "name": "Model_material0_0",
      "primitives": [
        {
          "attributes": {
            "NORMAL": 13,
            "POSITION": 12,
            "TEXCOORD_0": 14
          },
          "indices": 15,
          "material": 0,
          "mode": 4
        }
      ]
    },
    {
      "name": "Model_material0_0",
      "primitives": [
        {
          "attributes": {
            "NORMAL": 17,
            "POSITION": 16,
            "TEXCOORD_0": 18
          },
          "indices": 19,
          "material": 0,
          "mode": 4
        }
      ]
    },
    {
      "name": "Model_material0_0",
      "primitives": [
        {
          "attributes": {
            "NORMAL": 21,
            "POSITION": 20,
            "TEXCOORD_0": 22
          },
          "indices": 23,
          "material": 0,
          "mode": 4
        }
      ]
    },
    {
      "name": "Model_material0_0",
      "primitives": [
        {
          "attributes": {
            "NORMAL": 25,
            "POSITION": 24,
            "TEXCOORD_0": 26
          },
          "indices": 27,
          "material": 0,
          "mode": 4
        }
      ]
    },
    {
      "name": "Model_material0_0",
      "primitives": [
        {
          "attributes": {
            "NORMAL": 29,
            "POSITION": 28,
            "TEXCOORD_0": 30
          },
          "indices": 31,
          "material": 0,
          "mode": 4
        }
      ]
    },
    {
      "name": "Model_material0_0",
      "primitives": [
        {
          "attributes": {
            "NORMAL": 33,
            "POSITION": 32,
            "TEXCOORD_0": 34
          },
          "indices": 35,
          "material": 0,
          "mode": 4
        }
      ]
    },
    {
      "name": "Model_material0_0",
      "primitives": [
        {
          "attributes": {
            "NORMAL": 37,
            "POSITION": 36,
            "TEXCOORD_0": 38
          },
          "indices": 39,
          "material": 0,
          "mode": 4
        }
      ]
    },
    {
      "name": "Model_material0_0",
      "primitives": [
        {
          "attributes": {
            "NORMAL": 41,
            "POSITION": 40,
            "TEXCOORD_0": 42
          },
          "indices": 43,
          "material": 0,
          "mode": 4
        }
      ]
    }
  ],
  "nodes": [
    {
      "children": [
        1
      ],
      "matrix": [
        1.0,
        0.0,
        0.0,
        0.0,
        0.0,
        2.220446049250313e-16,
        -1.0,
        0.0,
        0.0,
        1.0,
        2.220446049250313e-16,
        0.0,
        0.0,
        0.0,
        0.0,
        1.0
      ],
      "name": "Sketchfab_model"
    },
    {
      "children": [
        2
      ],
      "matrix": [
        1.0,
        0.0,
        0.0,
        0.0,
        0.0,
        -1.0,
        0.0,
        0.0,
        0.0,
        0.0,
        -1.0,
        0.0,
        0.0,
        0.0,
        0.0,
        1.0
      ],
      "name": "model.fbx"
    },
    {
      "children": [
        3
      ],
      "name": "RootNode"
    },
    {
      "children": [
        4,
        5,
        6,
        7,
        8,
        9,
        10,
        11,
        12,
        13,
        14
      ],
      "name": "Model"
    },
    {
      "mesh": 0,
      "name": "Model_material0_0"
    },
    {
      "mesh": 1,
      "name": "Model_material0_0"
    },
    {
      "mesh": 2,
      "name": "Model_material0_0"
    },
    {
      "mesh": 3,
      "name": "Model_material0_0"
    },
    {
      "mesh": 4,
      "name": "Model_material0_0"
    },
    {
      "mesh": 5,
      "name": "Model_material0_0"
    },
    {
      "mesh": 6,
      "name": "Model_material0_0"
    },
    {
      "mesh": 7,
      "name": "Model_material0_0"
    },
    {
      "mesh": 8,
      "name": "Model_material0_0"
    },
    {
      "mesh": 9,
      "name": "Model_material0_0"
    },
    {
      "mesh": 10,
      "name": "Model_material0_0"
    }
  ],
  "samplers": [
    {
      "magFilter": 9729,
      "minFilter": 9987,
      "wrapS": 10497,
      "wrapT": 10497
    }
  ],
  "scene": 0,
  "scenes": [
    {
      "name": "Sketchfab_Scene",
      "nodes": [
        0
      ]
    }
  ],
  "textures": [
    {
      "sampler": 0,
      "source": 0
    }
  ]
}
